<?xml version="1.0" encoding="utf-8"?>
<svg version="1.1" id="Layer_1" xmlns="http://www.w3.org/2000/svg" xmlns:xlink="http://www.w3.org/1999/xlink" x="0px" y="0px"
	 width="105" height="95"
	 viewBox="0 0 110 110" style="enable-background:new 0 0 107 95;" xml:space="preserve">
<style type="text/css">
	.st0{opacity:0.2;}
	.st1{fill:url(#path-14_6_);}
	.st2{opacity:0.1;fill:#7258AA;}
	.st3{opacity:0.1;fill:#FFFFFF;}
	.st4{opacity:0.4;fill:#7258AA;enable-background:new    ;}
	.st5{opacity:0.4;}
	.st6{fill:url(#path-14_8_);}
	.st7{opacity:0.6;}
	.st8{fill:url(#path-14_9_);}
	.st9{opacity:0.8;}
	.st10{fill:url(#path-14_10_);}
	.st11{fill:url(#path-14_11_);}
	.st12{fill:url(#path-14_12_);}
	.st13{opacity:0.1;fill:#F3AE4B;}
	.st14{fill:url(#path-22_1_);}
	.st15{opacity:0.4;fill:#FFFFFF;enable-background:new    ;}

   .this-yellow {
    animation: this-yellow 6s ease-in infinite alternate;
     transform-origin: top right;
  }

  .st0 {
    animation: this-yellow-last 6s ease-in infinite alternate;
     transform-origin: top right;
  }

   @keyframes this-yellow {
            0% {
               transform: rotate(0) translateY(0);

            }
            50% {
              transform: rotate(-30deg) translateY(-4px);
            }
            100% {
              transform: rotate(-30deg) translateY(-4px);
            }
        }
   @keyframes this-yellow-last {
            0% {
               transform: rotate(0) translateY(0);

            }
            50% {
              transform: rotate(0) translateY(0);
            }
            100% {
              transform: rotate(-20deg) translateY(-4px);
            }
        }





</style>
<g id="_x31__4_" class="st0">
	<g id="ball-copy-4_4_" transform="translate(39.000000, 74.000000)">
		<linearGradient id="path-14_6_" gradientUnits="userSpaceOnUse" x1="42.9248" y1="-1.942" x2="57.0755" y2="-16.0927">
			<stop  offset="0" style="stop-color:#77649E"/>
			<stop  offset="0.1081" style="stop-color:#998DB7"/>
			<stop  offset="0.355" style="stop-color:#77649E"/>
			<stop  offset="1" style="stop-color:#9C85CC"/>
		</linearGradient>
		<path id="path-14_4_" class="st1" d="M50,0.9L50,0.9L50,0.9c-5.6,0-10-4.4-10-9.9l0,0l0,0c0-5.5,4.4-9.9,9.9-10l0.1,0l0,0
			c5.5-0.1,9.9,4.3,10,9.8c0,0,0,0.1,0,0.1l0,0l0,0C60-3.5,55.5,0.9,50,0.9z"/>
		<circle id="Oval_39_" class="st2" cx="50.3" cy="-9.3" r="7.9"/>
		<circle id="Oval_38_" class="st2" cx="50.3" cy="-9.3" r="6"/>
		<circle id="Oval_37_" class="st2" cx="50.3" cy="-9.3" r="3.7"/>
		<circle id="Oval_36_" class="st3" cx="51.6" cy="-13.6" r="4.6"/>
		<circle id="Oval_35_" class="st3" cx="52" cy="-14" r="3.4"/>
		<circle id="Oval_34_" class="st3" cx="52" cy="-14" r="2"/>
	</g>
	<rect id="Rectangle-7_4_" x="89" y="9" class="st4" width="1" height="48"/>
</g>
<g id="_x31_" class="st5">
	<g id="ball-copy-4" transform="translate(39.000000, 74.000000)">
		<linearGradient id="path-14_8_" gradientUnits="userSpaceOnUse" x1="32.9248" y1="3.058" x2="47.0755" y2="-11.0927">
			<stop  offset="0" style="stop-color:#77649E"/>
			<stop  offset="0.1081" style="stop-color:#998DB7"/>
			<stop  offset="0.355" style="stop-color:#77649E"/>
			<stop  offset="1" style="stop-color:#9C85CC"/>
		</linearGradient>
		<path id="path-14" class="st6" d="M40,5.9L40,5.9L40,5.9c-5.6,0-10-4.4-10-9.9l0,0l0,0c0-5.5,4.4-9.9,9.9-10l0.1,0l0,0
			c5.5-0.1,9.9,4.3,10,9.8c0,0,0,0.1,0,0.1l0,0l0,0C50,1.5,45.5,5.9,40,5.9z"/>
		<circle id="Oval_13_" class="st2" cx="40.3" cy="-4.3" r="7.9"/>
		<circle id="Oval_14_" class="st2" cx="40.3" cy="-4.3" r="6"/>
		<circle id="Oval_15_" class="st2" cx="40.3" cy="-4.3" r="3.7"/>
		<circle id="Oval_4_" class="st3" cx="41.6" cy="-8.6" r="4.6"/>
		<circle id="Oval_8_" class="st3" cx="42" cy="-9" r="3.4"/>
		<circle id="Oval_6_" class="st3" cx="42" cy="-9" r="2"/>
	</g>
	<rect id="Rectangle-7" x="79" y="14" class="st4" width="1" height="48"/>
</g>
<g id="_x31__3_" class="st7">
	<g id="ball-copy-4_3_" transform="translate(39.000000, 74.000000)">
		<linearGradient id="path-14_9_" gradientUnits="userSpaceOnUse" x1="22.9248" y1="8.058" x2="37.0755" y2="-6.0927">
			<stop  offset="0" style="stop-color:#77649E"/>
			<stop  offset="0.1081" style="stop-color:#998DB7"/>
			<stop  offset="0.355" style="stop-color:#77649E"/>
			<stop  offset="1" style="stop-color:#9C85CC"/>
		</linearGradient>
		<path id="path-14_3_" class="st8" d="M30,10.9L30,10.9L30,10.9c-5.6,0-10-4.4-10-9.9l0,0l0,0c0-5.5,4.4-9.9,9.9-10L30-9l0,0
			c5.5-0.1,9.9,4.3,10,9.8c0,0,0,0.1,0,0.1l0,0l0,0C40,6.5,35.5,10.9,30,10.9z"/>
		<circle id="Oval_33_" class="st2" cx="30.3" cy="0.7" r="7.9"/>
		<circle id="Oval_32_" class="st2" cx="30.3" cy="0.7" r="6"/>
		<circle id="Oval_31_" class="st2" cx="30.3" cy="0.7" r="3.7"/>
		<circle id="Oval_30_" class="st3" cx="31.6" cy="-3.6" r="4.6"/>
		<circle id="Oval_29_" class="st3" cx="32" cy="-4" r="3.4"/>
		<circle id="Oval_28_" class="st3" cx="32" cy="-4" r="2"/>
	</g>
	<rect id="Rectangle-7_3_" x="69" y="19" class="st4" width="1" height="48"/>
</g>
<g id="_x31__2_" class="st9">
	<g id="ball-copy-4_2_" transform="translate(39.000000, 74.000000)">
		<linearGradient id="path-14_10_" gradientUnits="userSpaceOnUse" x1="12.9248" y1="13.058" x2="27.0755" y2="-1.0927">
			<stop  offset="0" style="stop-color:#77649E"/>
			<stop  offset="0.1081" style="stop-color:#998DB7"/>
			<stop  offset="0.355" style="stop-color:#77649E"/>
			<stop  offset="1" style="stop-color:#9C85CC"/>
		</linearGradient>
		<path id="path-14_2_" class="st10" d="M20,15.9L20,15.9L20,15.9c-5.6,0-10-4.4-10-9.9l0,0l0,0c0-5.5,4.4-9.9,9.9-10L20-4l0,0
			c5.5-0.1,9.9,4.3,10,9.8c0,0,0,0.1,0,0.1l0,0l0,0C30,11.5,25.5,15.9,20,15.9z"/>
		<circle id="Oval_27_" class="st2" cx="20.3" cy="5.7" r="7.9"/>
		<circle id="Oval_26_" class="st2" cx="20.3" cy="5.7" r="6"/>
		<circle id="Oval_25_" class="st2" cx="20.3" cy="5.7" r="3.7"/>
		<circle id="Oval_24_" class="st3" cx="21.6" cy="1.4" r="4.6"/>
		<circle id="Oval_23_" class="st3" cx="22" cy="1" r="3.4"/>
		<circle id="Oval_22_" class="st3" cx="22" cy="1" r="2"/>
	</g>
	<rect id="Rectangle-7_2_" x="59" y="24" class="st4" width="1" height="48"/>
</g>
<g id="_x31__1_">
	<g id="ball-copy-4_1_" transform="translate(39.000000, 74.000000)">
		<linearGradient id="path-14_11_" gradientUnits="userSpaceOnUse" x1="2.9248" y1="18.058" x2="17.0755" y2="3.9073">
			<stop  offset="0" style="stop-color:#77649E"/>
			<stop  offset="0.1081" style="stop-color:#998DB7"/>
			<stop  offset="0.355" style="stop-color:#77649E"/>
			<stop  offset="1" style="stop-color:#9C85CC"/>
		</linearGradient>
		<path id="path-14_1_" class="st11" d="M10,20.9L10,20.9L10,20.9c-5.6,0-10-4.4-10-9.9l0,0l0,0C0,5.5,4.4,1.1,9.9,1L10,1l0,0
			c5.5-0.1,9.9,4.3,10,9.8c0,0,0,0.1,0,0.1l0,0l0,0C20,16.5,15.5,20.9,10,20.9z"/>
		<circle id="Oval_21_" class="st2" cx="10.3" cy="10.7" r="7.9"/>
		<circle id="Oval_20_" class="st2" cx="10.3" cy="10.7" r="6"/>
		<circle id="Oval_19_" class="st2" cx="10.3" cy="10.7" r="3.7"/>
		<circle id="Oval_18_" class="st3" cx="11.6" cy="6.4" r="4.6"/>
		<circle id="Oval_17_" class="st3" cx="12" cy="6" r="3.4"/>
		<circle id="Oval_16_" class="st3" cx="12" cy="6" r="2"/>
	</g>
	<rect id="Rectangle-7_1_" x="49" y="29" class="st4" width="1" height="48"/>
</g>
<g id="_x31__5_" class="this-yellow">
	<g id="ball-copy-4_5_" transform="translate(39.000000, 74.000000)">
		
			<linearGradient id="path-14_12_" gradientUnits="userSpaceOnUse" x1="-21.8717" y1="30.462" x2="-7.721" y2="16.3113" gradientTransform="matrix(0.8751 0.4839 -0.4839 0.8751 -3.8716 -4.1983)">
			<stop  offset="0" style="stop-color:#F1BD4F"/>
			<stop  offset="0.1081" style="stop-color:#EFCB69"/>
			<stop  offset="0.355" style="stop-color:#F1BD4F"/>
			<stop  offset="1" style="stop-color:#F38062"/>
		</linearGradient>
		<path id="path-14_5_" class="st12" d="M-33,17.8L-33,17.8L-33,17.8c-4.9-2.7-6.6-8.7-4-13.5l0,0l0,0c2.7-4.8,8.7-6.6,13.5-4l0.1,0
			l0,0c4.8,2.6,6.6,8.6,4,13.4c0,0,0,0.1,0,0.1l0,0l0,0C-22,18.7-28.1,20.5-33,17.8z"/>
		
			<ellipse id="Oval_45_" transform="matrix(0.4839 -0.8751 0.8751 0.4839 -22.2229 -19.6484)" class="st13" cx="-27.8" cy="9" rx="7.9" ry="7.9"/>
		
			<ellipse id="Oval_44_" transform="matrix(0.4839 -0.8751 0.8751 0.4839 -22.2229 -19.6484)" class="st13" cx="-27.8" cy="9" rx="6" ry="6"/>
		
			<ellipse id="Oval_43_" transform="matrix(0.4839 -0.8751 0.8751 0.4839 -22.2229 -19.6484)" class="st13" cx="-27.8" cy="9" rx="3.7" ry="3.7"/>
		
			<ellipse id="Oval_42_" transform="matrix(0.4839 -0.8751 0.8751 0.4839 -17.8028 -18.4343)" class="st3" cx="-24.5" cy="5.9" rx="4.6" ry="4.6"/>
		
			<ellipse id="Oval_41_" transform="matrix(0.4839 -0.8751 0.8751 0.4839 -17.3771 -18.0316)" class="st3" cx="-24" cy="5.7" rx="3.4" ry="3.4"/>
		
			<ellipse id="Oval_7_" transform="matrix(0.4839 -0.8751 0.8751 0.4839 -17.3771 -18.0316)" class="st3" cx="-24" cy="5.7" rx="2" ry="2"/>
	</g>
	
		<rect id="Rectangle-7_5_" x="2.8" y="54.9" transform="matrix(0.4839 -0.8751 0.8751 0.4839 -34.629 52.0073)" class="st4" width="48" height="1"/>
</g>
<linearGradient id="path-22_1_" gradientUnits="userSpaceOnUse" x1="19" y1="21.8182" x2="106.2727" y2="21.8182">
	<stop  offset="0" style="stop-color:#C1AAE7"/>
	<stop  offset="1" style="stop-color:#9B7ECE"/>
</linearGradient>
<polygon id="path-22_2_" class="st14" points="87.6,0 106.3,9.3 37.6,43.6 19,34.3 "/>
<path id="Rectangle-12-Copy-26" class="st15" d="M82.9,19l21.4-10.7L87.6,0l-38,19H82.9z"/>
</svg>
